<?xml version="1.0" encoding="iso-8859-1"?>
<!-- Generator: Adobe Illustrator 19.0.0, SVG Export Plug-In . SVG Version: 6.00 Build 0)  -->
<svg version="1.1" id="Capa_1" xmlns="http://www.w3.org/2000/svg" xmlns:xlink="http://www.w3.org/1999/xlink" x="0px" y="0px"
	 viewBox="0 0 512 512" style="enable-background:new 0 0 512 512;" xml:space="preserve">
<path style="fill:#FD5219;" d="M389.699,251.826c0,0-13.403,19.689-41.493,36.356c0,0,20.344-171.938-112.212-201.8
	c33.962,124.643-43.199,159.794-71.326,93.943c-46.971,62.713-11.307,117.427-11.307,117.427
	c-19.26,2.775-35.439-18.267-35.439-18.267c-0.145,2.592-0.225,5.202-0.225,7.83c0,76.383,61.921,138.303,138.303,138.303
	s138.303-61.921,138.303-138.303C394.303,275.045,392.698,263.152,389.699,251.826z"/>
<path style="fill:#BB3E13;" d="M389.699,251.826c0,0-13.403,19.689-41.493,36.356c0,0,18.22-154.012-92.206-195.825v333.261
	c76.383,0,138.303-61.921,138.303-138.303C394.303,275.045,392.698,263.152,389.699,251.826z"/>
<path style="fill:#FBDA35;" d="M316.654,364.964c0,33.498-27.156,60.654-60.654,60.654s-60.654-27.156-60.654-60.654
	c0-17.93,7.78-34.042,20.147-45.146c23.451,31.86,56.87-16.469,30.826-51.761C246.319,268.056,316.654,276.87,316.654,364.964z"/>
<path style="fill:#F7BA35;" d="M256,270.385v155.232l0,0c33.498,0,60.654-27.156,60.654-60.654
	C316.654,297.4,275.283,276.471,256,270.385z"/>
<path style="fill:#FF7F4B;" d="M437.02,74.98C388.667,26.629,324.38,0,256,0S123.333,26.629,74.98,74.98
	C26.629,123.333,0,187.62,0,256s26.629,132.667,74.98,181.02C123.333,485.371,187.62,512,256,512s132.667-26.629,181.02-74.98
	C485.371,388.667,512,324.38,512,256S485.371,123.333,437.02,74.98z M96.194,415.806C53.508,373.12,30,316.367,30,256
	c0-55.339,19.768-107.633,55.943-148.845l318.902,318.902C363.632,462.232,311.339,482,256,482
	C195.633,482,138.88,458.492,96.194,415.806z M426.057,404.845L107.155,85.942C148.368,49.768,200.661,30,256,30
	c60.367,0,117.12,23.508,159.806,66.194S482,195.633,482,256C482,311.339,462.232,363.633,426.057,404.845z"/>
<path style="fill:#FD5219;" d="M437.02,74.98C388.667,26.629,324.38,0,256,0v30c60.367,0,117.12,23.508,159.806,66.194
	S482,195.633,482,256c0,55.339-19.768,107.633-55.943,148.845L256,234.787v42.426l148.845,148.845
	C363.632,462.232,311.339,482,256,482v30c68.38,0,132.667-26.629,181.02-74.98C485.371,388.667,512,324.38,512,256
	S485.371,123.333,437.02,74.98z"/>
<g>
</g>
<g>
</g>
<g>
</g>
<g>
</g>
<g>
</g>
<g>
</g>
<g>
</g>
<g>
</g>
<g>
</g>
<g>
</g>
<g>
</g>
<g>
</g>
<g>
</g>
<g>
</g>
<g>
</g>
</svg>
